<svg width="50" height="49" viewBox="0 0 50 49" fill="none" xmlns="http://www.w3.org/2000/svg">
<path d="M25.0294 4.16479C13.5231 4.16479 4.19604 13.2146 4.19604 24.3788C4.19604 35.5429 13.5231 44.5927 25.0294 44.5927C36.5356 44.5927 45.8627 35.5429 45.8627 24.3788C45.8627 13.2146 36.5356 4.16479 25.0294 4.16479ZM32.7127 14.3971C34.3398 13.8716 35.8586 15.3452 35.3169 16.9239L31.1502 29.0523C30.9419 29.6566 30.469 30.1155 29.846 30.3176C28.2835 30.8229 18.9106 33.853 17.346 34.3604C15.719 34.886 14.2002 33.4124 14.7419 31.8336L18.9085 19.7053C19.1169 19.1009 19.5898 18.6421 20.2127 18.4399L32.7127 14.3971ZM25.0294 22.3574C23.8794 22.3574 22.946 23.2629 22.946 24.3788C22.946 25.4946 23.8794 26.4002 25.0294 26.4002C26.1794 26.4002 27.1127 25.4946 27.1127 24.3788C27.1127 23.2629 26.1794 22.3574 25.0294 22.3574Z" fill="#2A343D"/>
</svg>
