<svg width="50" height="49" viewBox="0 0 50 49" fill="none" xmlns="http://www.w3.org/2000/svg">
<path d="M6.40488 19.2517C5.04988 19.8035 4.20884 20.7859 4.19613 22.1767C4.18738 23.1489 4.86363 24.4548 6.21863 24.9885C6.77675 25.2088 14.6132 26.2316 14.6132 26.2316C14.6132 26.2316 16.6874 32.5929 17.4349 34.8286C17.6513 35.4754 17.7747 35.7928 18.2497 36.2153C19.0555 36.9308 20.4178 36.7065 21.007 36.1324C22.5657 34.6164 25.0295 32.2776 25.0295 32.2776L26.0663 33.0963C26.0663 33.0963 30.6707 36.66 33.1876 38.3377C34.6695 39.3262 35.698 40.3571 37.3659 40.3632C38.2155 40.3672 39.5782 39.9569 40.479 38.9563C41.0743 38.2953 41.4561 37.2381 41.6038 36.29C41.9397 34.1373 45.8795 10.8589 45.8628 10.0443C45.8361 8.74449 44.7092 8.01273 43.7726 8.02082C43.1842 8.02688 42.6995 8.19266 41.6207 8.51204C33.2761 10.9842 6.95759 19.0273 6.40488 19.2517ZM37.5295 14.085C37.5295 14.085 26.5336 23.3713 22.1397 27.6446C20.732 29.0131 20.6326 31.3619 20.6326 31.3619L18.3613 24.3112L37.5295 14.085Z" fill="#2A343D"/>
</svg>
