<svg width="50" height="49" viewBox="0 0 50 49" fill="none" xmlns="http://www.w3.org/2000/svg">
<path d="M24.9976 4.07251C13.4914 4.07251 4.16431 13.1227 4.16431 24.2865C4.16431 27.1852 4.85182 29.9779 6.05182 32.5617C4.34349 41.1223 4.2289 42.1 4.2289 42.1C3.94974 43.5021 5.1914 44.7028 6.63931 44.4374C6.63931 44.4374 7.55807 44.2415 16.4685 42.6054C19.131 43.7695 22.0101 44.5004 24.9976 44.5004C36.5039 44.5004 45.831 35.4502 45.831 24.2865C45.831 13.1227 36.5039 4.07251 24.9976 4.07251ZM19.1393 14.1795C21.0914 14.1795 23.6956 16.7062 23.6956 18.6013C23.6956 19.233 22.3331 21.4796 22.3935 21.7597C22.8268 23.7666 25.5268 26.4498 27.6018 26.8132C27.8497 26.8567 30.206 25.5498 30.856 25.5498C32.8102 25.5498 35.4143 28.0766 35.4143 29.9716C35.4143 31.8667 32.8102 34.3935 30.856 34.3935C28.3393 34.3935 23.6956 31.8667 21.0914 29.34C20.8101 29.0681 20.0706 28.3485 19.7893 28.0766C17.1851 25.5498 14.581 21.0435 14.581 18.6013C14.581 16.7062 17.1851 14.1795 19.1393 14.1795Z" fill="#2A343D"/>
</svg>
